<svg width="36" height="34" viewBox="0 0 36 34" fill="none" xmlns="http://www.w3.org/2000/svg">
<path d="M12.0411 26.6191C12.0411 26.7559 11.8742 26.8652 11.6637 26.8652C11.4242 26.8857 11.2573 26.7764 11.2573 26.6191C11.2573 26.4824 11.4242 26.373 11.6347 26.373C11.8524 26.3525 12.0411 26.4619 12.0411 26.6191ZM9.78387 26.3115C9.73306 26.4482 9.87823 26.6055 10.096 26.6465C10.2847 26.7148 10.5024 26.6465 10.546 26.5098C10.5895 26.373 10.4516 26.2158 10.2339 26.1543C10.0452 26.1064 9.83468 26.1748 9.78387 26.3115ZM12.9919 26.1953C12.7815 26.2432 12.6363 26.373 12.6581 26.5303C12.6798 26.667 12.8685 26.7559 13.0863 26.708C13.2968 26.6602 13.4419 26.5303 13.4202 26.3936C13.3984 26.2637 13.2024 26.1748 12.9919 26.1953ZM17.7677 0C7.70081 0 0 7.19824 0 16.6797C0 24.2607 5.06613 30.748 12.3024 33.0312C13.2315 33.1885 13.5581 32.6484 13.5581 32.2041C13.5581 31.7803 13.5363 29.4424 13.5363 28.0068C13.5363 28.0068 8.45565 29.0322 7.38871 25.9697C7.38871 25.9697 6.56129 23.9805 5.37097 23.4678C5.37097 23.4678 3.70887 22.3945 5.4871 22.415C5.4871 22.415 7.29435 22.5518 8.28871 24.1787C9.87823 26.8174 12.5419 26.0586 13.5798 25.6074C13.7468 24.5137 14.2185 23.7549 14.7411 23.3037C10.6839 22.8799 6.59032 22.3262 6.59032 15.75C6.59032 13.8701 7.14194 12.9268 8.30323 11.7236C8.11452 11.2793 7.49758 9.44726 8.49193 7.08203C10.0089 6.63769 13.5 8.92773 13.5 8.92773C14.9516 8.54492 16.5121 8.34668 18.0581 8.34668C19.604 8.34668 21.1645 8.54492 22.6161 8.92773C22.6161 8.92773 26.1073 6.63086 27.6242 7.08203C28.6185 9.4541 28.0016 11.2793 27.8129 11.7236C28.9742 12.9336 29.6855 13.877 29.6855 15.75C29.6855 22.3467 25.4105 22.873 21.3532 23.3037C22.021 23.8437 22.5871 24.8691 22.5871 26.4756C22.5871 28.7793 22.5653 31.6299 22.5653 32.1904C22.5653 32.6348 22.8992 33.1748 23.821 33.0176C31.079 30.748 36 24.2607 36 16.6797C36 7.19824 27.8347 0 17.7677 0ZM7.05484 23.5771C6.96048 23.6455 6.98226 23.8027 7.10565 23.9326C7.22177 24.042 7.38871 24.0898 7.48306 24.001C7.57742 23.9326 7.55564 23.7754 7.43226 23.6455C7.31613 23.5361 7.14919 23.4883 7.05484 23.5771ZM6.27097 23.0234C6.22016 23.1123 6.29274 23.2217 6.4379 23.29C6.55403 23.3584 6.69919 23.3379 6.75 23.2422C6.80081 23.1533 6.72823 23.0439 6.58306 22.9756C6.4379 22.9346 6.32177 22.9551 6.27097 23.0234ZM8.62258 25.457C8.50645 25.5459 8.55 25.751 8.71694 25.8809C8.88387 26.0381 9.09435 26.0586 9.18871 25.9492C9.28306 25.8603 9.23952 25.6553 9.09435 25.5254C8.93468 25.3682 8.71694 25.3477 8.62258 25.457ZM7.79516 24.4521C7.67903 24.5205 7.67903 24.6982 7.79516 24.8555C7.91129 25.0127 8.10726 25.0811 8.20161 25.0127C8.31774 24.9238 8.31774 24.7461 8.20161 24.5889C8.1 24.4316 7.91129 24.3633 7.79516 24.4521Z" fill="#3CBA9C"/>
</svg>
