<svg width="33" height="34" viewBox="0 0 33 34" fill="none" xmlns="http://www.w3.org/2000/svg">
<g clip-path="url(#clip0_2_33)">
<path d="M11.0013 17C11.0013 13.8705 13.4631 11.3329 16.5007 11.3329C19.5382 11.3329 22.0013 13.8705 22.0013 17C22.0013 20.1295 19.5382 22.6671 16.5007 22.6671C13.4631 22.6671 11.0013 20.1295 11.0013 17ZM8.02777 17C8.02777 21.8212 11.8211 25.7293 16.5007 25.7293C21.1802 25.7293 24.9736 21.8212 24.9736 17C24.9736 12.1788 21.1802 8.2707 16.5007 8.2707C11.8211 8.2707 8.02777 12.1788 8.02777 17ZM23.3289 7.92458C23.3285 9.05124 24.2146 9.96495 25.3082 9.9654C26.4018 9.96585 27.2886 9.05288 27.2891 7.92622C27.2895 6.79956 26.4033 5.88585 25.3098 5.8854H25.309C24.2159 5.88592 23.3298 6.79846 23.3289 7.92458ZM9.83439 30.8376C8.22565 30.7621 7.35124 30.486 6.77015 30.2528C5.99977 29.9438 5.4501 29.5758 4.87218 28.9812C4.29426 28.3866 3.93653 27.8208 3.63793 27.0271C3.41141 26.4287 3.14344 25.5276 3.07031 23.8702C2.99032 22.0782 2.97434 21.54 2.97434 17.0001C2.97434 12.4603 2.99164 11.9235 3.07031 10.1301C3.14357 8.47266 3.41352 7.5733 3.63793 6.97313C3.93785 6.17943 4.29506 5.61313 4.87218 5.01772C5.44931 4.42231 5.99845 4.05375 6.77015 3.74612C7.35098 3.51274 8.22565 3.23666 9.83439 3.16132C11.5737 3.0789 12.0962 3.06245 16.5007 3.06245C20.9051 3.06245 21.4282 3.08026 23.1689 3.16132C24.7777 3.2368 25.6506 3.51492 26.2331 3.74612C27.0035 4.05375 27.5532 4.42313 28.1311 5.01772C28.709 5.61231 29.0655 6.17943 29.3654 6.97313C29.5919 7.57153 29.8599 8.47266 29.933 10.1301C30.013 11.9235 30.029 12.4603 30.029 17.0001C30.029 21.54 30.013 22.0767 29.933 23.8702C29.8597 25.5276 29.5904 26.4285 29.3654 27.0271C29.0655 27.8208 28.7082 28.3871 28.1311 28.9812C27.554 29.5752 27.0035 29.9438 26.2331 30.2528C25.6523 30.4862 24.7777 30.7622 23.1689 30.8376C21.4296 30.92 20.9071 30.9365 16.5007 30.9365C12.0942 30.9365 11.5732 30.92 9.83439 30.8376ZM9.69777 0.102952C7.94117 0.185368 6.74085 0.472328 5.6926 0.892568C4.60698 1.32654 3.68796 1.90876 2.7696 2.85342C1.85124 3.79807 1.28758 4.7464 0.866351 5.86486C0.458454 6.94552 0.179923 8.18149 0.099928 9.99124C0.0186127 11.8038 0 12.3833 0 17C0 21.6167 0.0186127 22.1962 0.099928 24.0088C0.179923 25.8186 0.458454 27.0545 0.866351 28.1351C1.28758 29.2529 1.85137 30.2023 2.7696 31.1466C3.68783 32.0908 4.60698 32.6722 5.6926 33.1074C6.74283 33.5277 7.94117 33.8146 9.69777 33.897C11.4581 33.9795 12.0196 34 16.5007 34C20.9817 34 21.5442 33.9808 23.3036 33.897C25.0603 33.8146 26.2598 33.5277 27.3087 33.1074C28.3937 32.6722 29.3134 32.0912 30.2317 31.1466C31.1501 30.2019 31.7126 29.2529 32.135 28.1351C32.5429 27.0545 32.8227 25.8185 32.9014 24.0088C32.9814 22.1948 33 21.6167 33 17C33 12.3833 32.9814 11.8038 32.9014 9.99124C32.8214 8.18135 32.5429 6.94484 32.135 5.86486C31.7126 4.74708 31.1486 3.79957 30.2317 2.85342C29.3148 1.90726 28.3937 1.32654 27.31 0.892568C26.2598 0.472328 25.0601 0.184008 23.3049 0.102952C21.5455 0.020536 20.983 0 16.502 0C12.0209 0 11.4581 0.019176 9.69777 0.102952Z" fill="#3CBA9C"/>
</g>
<defs>
<clipPath id="clip0_2_33">
<rect width="33" height="34" fill="white"/>
</clipPath>
</defs>
</svg>
