<svg width="33" height="35" viewBox="0 0 33 35" fill="none" xmlns="http://www.w3.org/2000/svg">
<path d="M30.6429 0H2.34978C1.05335 0 0 1.10449 0 2.46035V31.6646C0 33.0205 1.05335 34.125 2.34978 34.125H30.6429C31.9393 34.125 33 33.0205 33 31.6646V2.46035C33 1.10449 31.9393 0 30.6429 0ZM9.97366 29.25H5.08259V12.9645H9.98103V29.25H9.97366ZM7.52812 10.7402C5.95915 10.7402 4.69219 9.42246 4.69219 7.80762C4.69219 6.19277 5.95915 4.875 7.52812 4.875C9.08973 4.875 10.3641 6.19277 10.3641 7.80762C10.3641 9.43008 9.0971 10.7402 7.52812 10.7402ZM28.3078 29.25H23.4167V21.3281C23.4167 19.4391 23.3799 17.0092 20.8754 17.0092C18.3268 17.0092 17.9364 19.0658 17.9364 21.191V29.25H13.0453V12.9645H17.7375V15.1887H17.8038C18.4594 13.909 20.0578 12.5607 22.4371 12.5607C27.3871 12.5607 28.3078 15.9352 28.3078 20.3227V29.25Z" fill="#3CBA9C"/>
</svg>
