<svg width="33" height="34" viewBox="0 0 33 34" fill="none" xmlns="http://www.w3.org/2000/svg">
<path d="M28.0574 4.83164C24.971 1.71445 20.8607 0 16.4926 0C7.47656 0 0.139955 7.39219 0.139955 16.4766C0.139955 19.3785 0.891295 22.2137 2.32031 24.7148L0 33.25L8.66987 30.9566C11.0565 32.2703 13.7451 32.9605 16.4853 32.9605H16.4926C25.5013 32.9605 33 25.5684 33 16.484C33 12.0828 31.1438 7.94883 28.0574 4.83164ZM16.4926 30.1848C14.0471 30.1848 11.6531 29.5242 9.56853 28.2773L9.075 27.9805L3.93348 29.3387L5.30357 24.2844L4.97946 23.7648C3.61674 21.5828 2.90223 19.0668 2.90223 16.4766C2.90223 8.92852 9.00134 2.7832 16.5 2.7832C20.1315 2.7832 23.542 4.2082 26.1054 6.79844C28.6688 9.38867 30.2451 12.825 30.2377 16.484C30.2377 24.0395 23.9839 30.1848 16.4926 30.1848ZM23.9471 19.9277C23.542 19.7199 21.531 18.7254 21.1554 18.5918C20.7797 18.4508 20.5071 18.384 20.2346 18.7996C19.9621 19.2152 19.1813 20.1355 18.9382 20.4176C18.7025 20.6922 18.4594 20.7293 18.0542 20.5215C15.6529 19.3117 14.0766 18.3617 12.4929 15.623C12.073 14.8957 12.9127 14.9477 13.6935 13.3742C13.8261 13.0996 13.7598 12.8621 13.6567 12.6543C13.5536 12.4465 12.7359 10.4203 12.3971 9.59648C12.0656 8.79492 11.7268 8.90625 11.4763 8.89141C11.2406 8.87656 10.9681 8.87656 10.6955 8.87656C10.423 8.87656 9.98103 8.98047 9.60536 9.38867C9.22969 9.8043 8.17634 10.7988 8.17634 12.825C8.17634 14.8512 9.64219 16.8105 9.84107 17.0852C10.0473 17.3598 12.7212 21.516 16.8241 23.3047C19.417 24.4328 20.4335 24.5293 21.7299 24.3363C22.5181 24.2176 24.146 23.3418 24.4848 22.377C24.8237 21.4121 24.8237 20.5883 24.7205 20.4176C24.6248 20.232 24.3522 20.1281 23.9471 19.9277Z" fill="#3CBA9C"/>
</svg>
